<svg width="49" height="49" viewBox="0 0 49 49" fill="none" xmlns="http://www.w3.org/2000/svg">
<g filter="url(#filter0_d_8_282)">
<circle opacity="0.5" cx="19.9629" cy="19.9629" r="19.9629" transform="matrix(-0.999669 0.0257268 0.0257268 0.999669 43.9121 0)" fill="white"/>
<path d="M25.7034 26.9426C25.9191 26.943 26.128 26.8679 26.2941 26.7304C26.3875 26.6529 26.4648 26.5577 26.5214 26.4504C26.578 26.343 26.6129 26.2255 26.624 26.1046C26.6352 25.9837 26.6224 25.8619 26.5863 25.7459C26.5503 25.63 26.4918 25.5224 26.414 25.4291L22.2796 20.4825L26.2664 15.5267C26.343 15.4323 26.4003 15.3236 26.4348 15.207C26.4694 15.0905 26.4805 14.9682 26.4677 14.8473C26.4548 14.7263 26.4182 14.6091 26.3599 14.5024C26.3016 14.3957 26.2228 14.3016 26.128 14.2254C26.0325 14.1414 25.9206 14.078 25.7995 14.0393C25.6784 14.0005 25.5505 13.9872 25.424 14.0002C25.2975 14.0132 25.175 14.0522 25.0643 14.1148C24.9536 14.1774 24.857 14.2622 24.7806 14.3638L20.3231 19.9011C20.1873 20.0662 20.1131 20.2733 20.1131 20.4871C20.1131 20.7009 20.1873 20.908 20.3231 21.0731L24.9374 26.6104C25.03 26.7221 25.1476 26.8103 25.2807 26.8681C25.4138 26.9258 25.5586 26.9513 25.7034 26.9426Z" fill="white"/>
</g>
<defs>
<filter id="filter0_d_8_282" x="0.506836" y="0.506836" width="47.9258" height="47.926" filterUnits="userSpaceOnUse" color-interpolation-filters="sRGB">
<feFlood flood-opacity="0" result="BackgroundImageFix"/>
<feColorMatrix in="SourceAlpha" type="matrix" values="0 0 0 0 0 0 0 0 0 0 0 0 0 0 0 0 0 0 127 0" result="hardAlpha"/>
<feOffset dy="4"/>
<feGaussianBlur stdDeviation="2"/>
<feComposite in2="hardAlpha" operator="out"/>
<feColorMatrix type="matrix" values="0 0 0 0 0 0 0 0 0 0 0 0 0 0 0 0 0 0 0.25 0"/>
<feBlend mode="normal" in2="BackgroundImageFix" result="effect1_dropShadow_8_282"/>
<feBlend mode="normal" in="SourceGraphic" in2="effect1_dropShadow_8_282" result="shape"/>
</filter>
</defs>
</svg>
